# xmcd CD database file
#
# Track frame offsets:
#	150
#	18789
#	30451
#	54607
#	72560
#	84379
#	95850
#	111354
#	123666
#	149442
#	156031
#	162620
#	178557
#	204407
#	271481
#
# Disc length: 3857 seconds
#
# Revision: 0
# Processed by: cddbd v1.5.1PL2 Copyright (c) Steve Scherf et al.
# Submitted via: freeDB plugin v1.0
#
DISCID=d90f0f0f
DTITLE=関孝弘 - 愛する子ども達のために - 関孝弘チャリティーコンサートLIVE
DYEAR=1900
DGENRE=Classical
TTITLE0=ショパン：パガニーニの思い出
TTITLE1=ヴェッキアート：夜のヴェローナ
TTITLE2=ガルッピ：ピアノソナタ第１番「エレナ」第１章アンダンテ
TTITLE3=ガルッピ：ピアノソナタ第１番「エレナ」第２章アレグロ
TTITLE4=ガルッピ：ピアノソナタ第１番「エレナ」第３章アレグロ　アッサイ
TTITLE5=モーツァルト：バター付きパン（１本指のワルツ）
TTITLE6=モーツァルト：トルコ行進曲
TTITLE7=ショパン：ポロネーズ　ト短調
TTITLE8=ショパン：軍隊ポロネーズ　作品４０−１
TTITLE9=チマローザ：ピアノ・ソナタ第２６番
TTITLE10=チマローザ：ピアノ・ソナタ第２７番
TTITLE11=アルベニス：マラゲーニャ「入り江のざわめき」
TTITLE12=アルベニス：アストゥリアス（伝説）
TTITLE13=バッハ＝ブゾーニ：シャコンヌ
TTITLE14=ショパン：ノックターン嬰ハ短調　遺作
EXTD=
EXTT0=
EXTT1=
EXTT2=
EXTT3=
EXTT4=
EXTT5=
EXTT6=
EXTT7=
EXTT8=
EXTT9=
EXTT10=
EXTT11=
EXTT12=
EXTT13=
EXTT14=
PLAYORDER=
